<svg width="318" height="73" viewBox="0 0 318 73" fill="none" xmlns="http://www.w3.org/2000/svg">
<path d="M85.731 65.473C85.6227 64.8725 85.2899 64.4243 84.7545 64.1272C84.3383 63.8962 83.9223 63.6651 83.5041 63.4329C83.5201 63.3695 83.5304 63.323 83.5436 63.2773C84.2418 60.8506 84.7615 58.3869 85.0977 55.8842C85.4693 53.1182 85.6234 50.3415 85.5628 47.5512C85.5061 44.9354 85.2639 42.3381 84.842 39.7561C84.3655 36.84 83.6627 33.9796 82.7371 31.1737C81.0624 26.0972 78.7287 21.3431 75.7176 16.9223C73.3794 13.4893 70.6932 10.3528 67.6389 7.53291C67.1823 7.11123 66.7167 6.69948 66.2475 6.27603C66.6694 5.51694 67.0867 4.76157 67.5084 4.00833C68.0747 2.9968 67.76 1.86588 66.7497 1.3021C66.1214 0.95156 65.4917 0.603502 64.8612 0.256686C63.8911 -0.277109 62.7522 0.0448787 62.2092 1.00709C61.9578 1.45237 61.7117 1.90065 61.4626 2.34716C61.4271 2.41085 61.3876 2.47258 61.3591 2.51977C60.1932 1.79864 59.0476 1.09012 57.9021 0.381583C57.8577 0.437286 57.8379 0.456792 57.8242 0.479854C57.2718 1.42184 56.7062 2.35657 56.1714 3.30867C55.5531 4.40961 55.7008 5.79084 56.5709 6.71917C56.9104 7.08124 57.3595 7.34149 57.7627 7.64289C57.938 7.77382 58.1233 7.89143 58.3057 8.01596C57.8244 8.88167 57.3582 9.72165 56.891 10.5611C53.6446 16.3945 50.3979 22.2278 47.1515 28.0612C45.4175 31.177 43.6833 34.2929 41.9508 37.4094C41.8907 37.5177 41.8331 37.587 41.6864 37.59C38.7976 37.6496 36.3424 39.6667 35.7276 42.484C35.6953 42.6323 35.6245 42.6997 35.4878 42.7522C27.0933 45.9732 18.7002 49.1978 10.307 52.4222C7.25299 53.5955 4.199 54.769 1.14555 55.9432C0.551353 56.1717 0.183489 56.5986 0.0396524 57.2177C0.032185 57.25 0.0135124 57.2796 0 57.3105C0 57.4903 0 57.67 0 57.8499C0.336922 58.7399 0.66905 59.6317 1.01237 60.5193C1.42432 61.584 2.36112 61.9915 3.43181 61.5801C9.41693 59.281 15.4021 56.9817 21.387 54.6823C26.726 52.6308 32.065 50.5794 37.4026 48.5242C37.5429 48.4703 37.6329 48.4838 37.7506 48.5828C39.8416 50.3433 42.6768 50.6007 45.0342 49.2448C45.1551 49.1753 45.2361 49.1836 45.3521 49.2478C50.6038 52.1609 55.8575 55.0701 61.1106 57.9807C65.9459 60.6596 70.7807 63.3392 75.6157 66.0188C75.7113 66.0719 75.8064 66.126 75.9145 66.1868C75.8432 66.3601 75.7794 66.5187 75.7131 66.6764C75.0746 68.1944 75.7282 69.8838 77.2185 70.5934C78.1427 71.0334 79.0594 71.4891 79.9789 71.939C80.0077 71.953 80.0309 71.9794 80.0565 72C80.0842 72 80.1119 72 80.1397 72C80.1722 71.911 80.1985 71.8191 80.2384 71.7334C80.5995 70.9571 80.9629 70.1818 81.3259 69.4062C81.3513 69.352 81.3784 69.2982 81.4106 69.2322C81.5501 69.3085 81.6767 69.3782 81.8038 69.4472C82.7581 69.966 83.894 69.6507 84.429 68.7107C84.805 68.0502 85.1709 67.3839 85.5386 66.7187C85.7543 66.3278 85.809 65.9062 85.731 65.473ZM41.8669 46.2874C40.5027 46.2874 39.3968 45.184 39.3968 43.8228C39.3968 42.4616 40.5027 41.3582 41.8669 41.3582C43.2311 41.3582 44.3372 42.4616 44.3372 43.8228C44.3372 45.184 43.2311 46.2874 41.8669 46.2874ZM77.8888 60.3172C77.7818 60.2603 77.7032 60.22 77.626 60.1772C68.9782 55.3857 60.3304 50.5941 51.6826 45.8024C50.5568 45.1785 49.4319 44.553 48.3035 43.9338C48.1795 43.8659 48.123 43.7877 48.1207 43.6457C48.1027 42.5643 47.7966 41.5657 47.2534 40.6331C47.2173 40.5711 47.2347 40.4469 47.2735 40.3771C48.512 38.1398 49.7562 35.9058 50.9997 33.6713C54.9918 26.4976 58.9838 19.3241 62.9758 12.1506C63.0255 12.0616 63.0777 11.9741 63.1446 11.8586C69.9465 18.171 74.6429 25.7586 77.2629 34.6104C79.7775 43.1059 80.0458 51.6718 77.8888 60.3172Z" fill="white"/>
<path d="M103.906 7.09742C103.906 6.12419 104.088 5.2053 104.454 4.33952C104.819 3.47466 105.326 2.71726 105.974 2.06823C106.623 1.41951 107.38 0.912344 108.246 0.547499C109.11 0.182343 110.03 0 111.004 0C111.977 0 112.896 0.182343 113.761 0.547499C114.626 0.9125 115.384 1.41951 116.032 2.06823C116.681 2.71726 117.188 3.47451 117.553 4.33952C117.918 5.20515 118.101 6.12403 118.101 7.09742V8.31403C118.101 8.55742 118.033 8.76016 117.898 8.92241C117.762 9.08483 117.574 9.16582 117.33 9.16582H113.964C113.721 9.16582 113.511 9.08467 113.335 8.92241C113.159 8.76031 113.072 8.55742 113.072 8.31403V7.09742C113.072 6.52967 112.869 6.04306 112.464 5.63757C112.058 5.23208 111.571 5.02919 111.003 5.02919C110.435 5.02919 109.949 5.23193 109.543 5.63757C109.138 6.04306 108.935 6.52983 108.935 7.09742V21.0894C108.935 21.6571 109.138 22.1437 109.543 22.5492C109.949 22.9547 110.435 23.1576 111.003 23.1576C111.571 23.1576 112.058 22.9548 112.464 22.5492C112.869 22.1437 113.072 21.6571 113.072 21.0894V19.8727C113.072 19.6566 113.159 19.4467 113.335 19.244C113.511 19.0412 113.721 18.9398 113.964 18.9398H117.209C117.425 18.9398 117.628 19.0146 117.817 19.1628C118.006 19.3119 118.101 19.5348 118.101 19.8319V21.0892C118.101 22.0624 117.918 22.9819 117.553 23.8471C117.188 24.7126 116.681 25.4694 116.033 26.1181C115.384 26.7671 114.626 27.274 113.762 27.639C112.896 28.0038 111.977 28.1865 111.004 28.1865C109.922 28.1865 108.942 28.004 108.063 27.639C107.184 27.2738 106.441 26.767 105.833 26.1181C105.224 25.4694 104.751 24.7126 104.413 23.8471C104.075 22.9819 103.906 22.0626 103.906 21.0892L103.906 7.09742Z" fill="white"/>
<path d="M127.713 1.01402C127.848 0.635788 128.064 0.433038 128.362 0.405632H132.296C132.593 0.48676 132.796 0.68951 132.904 1.01402L138.136 26.9294C138.136 27.4432 137.838 27.7274 137.243 27.7811H133.837C133.701 27.7811 133.546 27.7343 133.37 27.6393C133.194 27.5449 133.093 27.4029 133.066 27.2136L132.539 24.4556H128.037L127.55 27.2136C127.469 27.5652 127.239 27.7545 126.861 27.7813H123.292C123.103 27.7813 122.927 27.7204 122.765 27.5988C122.603 27.477 122.522 27.3087 122.522 27.0919C122.522 27.0653 122.528 27.0451 122.542 27.0311C122.555 27.0177 122.562 26.9842 122.562 26.9295L127.713 1.01402ZM130.308 12.3292L128.97 19.5076H131.647L130.308 12.3292Z" fill="white"/>
<path d="M144.462 12.1265C143.813 11.3697 143.333 10.5992 143.022 9.81485C142.711 9.03082 142.556 8.12531 142.556 7.09743C142.556 6.1242 142.738 5.20531 143.103 4.33953C143.469 3.47467 143.961 2.71727 144.584 2.06824C145.205 1.41952 145.949 0.912354 146.814 0.547509C147.68 0.182353 148.599 9.87333e-06 149.572 9.87333e-06C150.546 9.87333e-06 151.464 0.182353 152.33 0.547509C153.195 0.91251 153.938 1.41952 154.561 2.06824C155.182 2.71727 155.676 3.47452 156.041 4.33953C156.406 5.20516 156.589 6.12404 156.589 7.09743V8.27372C156.589 8.5442 156.494 8.76032 156.305 8.92242C156.115 9.08484 155.912 9.16583 155.696 9.16583H152.411C152.194 9.16583 151.999 9.09155 151.823 8.94284C151.647 8.79444 151.56 8.58483 151.56 8.31404C151.56 7.39516 151.451 6.61782 151.235 5.98218C151.018 5.34717 150.464 5.0292 149.572 5.0292C149.004 5.0292 148.531 5.23194 148.153 5.63758C147.774 6.04307 147.585 6.52984 147.585 7.09743C147.585 7.39516 147.639 7.68557 147.747 7.96944C147.855 8.25331 148.017 8.51695 148.234 8.76034L154.479 16.02C154.911 16.5066 155.27 16.9526 155.554 17.3582C155.838 17.7637 156.061 18.1563 156.223 18.5345C156.385 18.9134 156.5 19.305 156.568 19.7105C156.635 20.116 156.669 20.5761 156.669 21.0895C156.669 22.009 156.487 22.9011 156.122 23.7661C155.757 24.6318 155.256 25.3954 154.621 26.0575C153.986 26.7204 153.235 27.2477 152.37 27.6393C151.505 28.0309 150.572 28.2274 149.572 28.2274C148.599 28.2274 147.679 28.0378 146.814 27.6595C145.949 27.2813 145.192 26.7674 144.543 26.1184C143.894 25.4697 143.387 24.7129 143.022 23.8474C142.657 22.9823 142.475 22.0629 142.475 21.0895V19.7918C142.475 19.4944 142.576 19.2784 142.779 19.1428C142.982 19.0077 143.164 18.94 143.326 18.94H146.652C147.058 18.94 147.294 19.163 147.362 19.6093C147.429 20.0552 147.497 20.542 147.564 21.0691C147.632 21.5964 147.788 22.0768 148.031 22.509C148.274 22.9419 148.788 23.1578 149.572 23.1578C150.14 23.1578 150.626 22.962 151.032 22.5698C151.438 22.1782 151.641 21.6845 151.641 21.0895C151.641 20.8197 151.546 20.5356 151.357 20.2378C151.167 19.9405 150.951 19.6434 150.708 19.3455L144.462 12.1265Z" fill="white"/>
<path d="M166.2 1.01402C166.335 0.635788 166.551 0.433038 166.849 0.405632H170.783C171.08 0.48676 171.283 0.68951 171.391 1.01402L176.623 26.9294C176.623 27.4432 176.325 27.7274 175.731 27.7811H172.324C172.188 27.7811 172.033 27.7343 171.858 27.6393C171.681 27.5449 171.58 27.4029 171.553 27.2136L171.026 24.4556H166.524L166.038 27.2136C165.956 27.5652 165.726 27.7545 165.348 27.7813H161.779C161.59 27.7813 161.414 27.7204 161.252 27.5988C161.09 27.477 161.009 27.3087 161.009 27.0919C161.009 27.0653 161.015 27.0451 161.029 27.0311C161.043 27.0177 161.049 26.9842 161.049 26.9295L166.2 1.01402ZM168.796 12.3292L167.457 19.5076H170.134L168.796 12.3292Z" fill="white"/>
<path d="M196.17 1.2979C196.17 1.08176 196.251 0.879011 196.413 0.689503C196.576 0.500619 196.805 0.405632 197.103 0.405632H203.268C204.241 0.405632 205.16 0.587984 206.025 0.95314C206.89 1.31798 207.648 1.82515 208.296 2.47387C208.945 3.1229 209.452 3.88015 209.817 4.74516C210.182 5.61079 210.365 6.52966 210.365 7.50305V9.73355C210.365 11.3831 209.892 12.8026 208.945 13.9921L208.783 14.1542C209.053 14.4787 209.29 14.7967 209.493 15.1072C209.695 15.4183 209.864 15.7428 210 16.0804C210.135 16.4188 210.229 16.7902 210.284 17.1958C210.337 17.6013 210.365 18.0747 210.365 18.6153V20.6837C210.365 21.6569 210.182 22.5765 209.817 23.4416C209.452 24.3071 208.945 25.0639 208.296 25.7126C207.648 26.3616 206.89 26.8685 206.025 27.2335C205.16 27.5985 204.241 27.781 203.268 27.781H197.103C196.86 27.781 196.643 27.7139 196.454 27.5782C196.265 27.4432 196.17 27.2677 196.17 27.051V1.2979ZM201.199 5.43467V11.5585H203.268C203.835 11.5585 204.322 11.3558 204.728 10.9502C205.133 10.5447 205.336 10.0579 205.336 9.49032V7.5029C205.336 6.93515 205.133 6.44854 204.728 6.04305C204.322 5.63756 203.835 5.43467 203.268 5.43467H201.199ZM201.199 16.5876V22.7521H203.268C203.835 22.7521 204.322 22.5493 204.728 22.1437C205.133 21.7382 205.336 21.2514 205.336 20.6839V18.6561C205.336 18.0882 205.133 17.6016 204.728 17.196C204.322 16.7905 203.835 16.5876 203.268 16.5876H201.199Z" fill="white"/>
<path d="M220.098 1.01402C220.233 0.635788 220.449 0.433038 220.747 0.405632H224.681C224.978 0.48676 225.181 0.68951 225.289 1.01402L230.521 26.9294C230.521 27.4432 230.223 27.7274 229.629 27.7811H226.222C226.087 27.7811 225.931 27.7343 225.756 27.6393C225.58 27.5449 225.478 27.4029 225.452 27.2136L224.924 24.4556H220.423L219.936 27.2136C219.855 27.5652 219.625 27.7545 219.247 27.7813H215.678C215.488 27.7813 215.313 27.7204 215.15 27.5988C214.988 27.477 214.907 27.3087 214.907 27.0919C214.907 27.0653 214.913 27.0451 214.927 27.0311C214.941 27.0177 214.948 26.9842 214.948 26.9295L220.098 1.01402ZM222.694 12.3292L221.355 19.5076H224.032L222.694 12.3292Z" fill="white"/>
<path d="M235.631 1.21677C235.631 0.757247 235.887 0.50062 236.401 0.446119L242.728 0.405632C243.702 0.405632 244.62 0.574897 245.486 0.912491C246.351 1.25086 247.108 1.73063 247.757 2.35241C248.406 2.97465 248.913 3.71805 249.278 4.58305C249.643 5.44868 249.825 6.42206 249.825 7.50305V9.49047C249.825 10.9503 249.568 12.1132 249.055 12.9782C248.541 13.844 247.905 14.4929 247.149 14.925L250.515 26.6458C250.541 26.7269 250.555 26.8485 250.555 27.011C250.555 27.2814 250.481 27.4772 250.332 27.5989C250.183 27.7207 250.001 27.7814 249.785 27.7814H246.175C245.958 27.7814 245.81 27.7143 245.729 27.5787C245.648 27.4437 245.58 27.3088 245.526 27.1732L242.403 16.588H240.66V26.8487C240.66 27.0655 240.578 27.2744 240.416 27.4772C240.254 27.6799 240.051 27.7814 239.808 27.7814H236.523C236.306 27.7814 236.103 27.6799 235.914 27.4772C235.725 27.2744 235.631 27.0653 235.631 26.8487L235.631 1.21677ZM240.66 5.43467V11.5585H242.728C243.296 11.5585 243.783 11.3558 244.188 10.9502C244.594 10.5447 244.797 10.0579 244.797 9.49032V7.5029C244.797 6.93515 244.594 6.44854 244.188 6.04305C243.783 5.63756 243.296 5.43467 242.728 5.43467H240.66Z" fill="white"/>
<path d="M256.476 1.21677C256.476 1.00063 256.543 0.811276 256.679 0.648863C256.814 0.486762 257.016 0.405632 257.287 0.405632H260.613C260.802 0.405632 260.998 0.480377 261.201 0.628619C261.404 0.77764 261.505 0.973382 261.505 1.21677V26.97C261.505 27.5113 261.207 27.7811 260.613 27.7811H257.287C256.746 27.7811 256.476 27.5113 256.476 26.97V1.21677Z" fill="white"/>
<path d="M269.129 12.1265C268.48 11.3697 268 10.5992 267.69 9.81485C267.378 9.03082 267.223 8.12531 267.223 7.09743C267.223 6.1242 267.406 5.20531 267.771 4.33953C268.136 3.47467 268.629 2.71727 269.251 2.06824C269.873 1.41952 270.616 0.912354 271.482 0.547509C272.347 0.182353 273.266 9.87333e-06 274.239 9.87333e-06C275.213 9.87333e-06 276.132 0.182353 276.997 0.547509C277.862 0.91251 278.606 1.41952 279.228 2.06824C279.85 2.71727 280.343 3.47452 280.708 4.33953C281.073 5.20516 281.256 6.12404 281.256 7.09743V8.27372C281.256 8.5442 281.161 8.76032 280.972 8.92242C280.782 9.08484 280.58 9.16583 280.363 9.16583H277.078C276.862 9.16583 276.666 9.09155 276.49 8.94284C276.314 8.79444 276.227 8.58483 276.227 8.31404C276.227 7.39516 276.118 6.61782 275.902 5.98218C275.685 5.34717 275.132 5.0292 274.239 5.0292C273.672 5.0292 273.198 5.23194 272.82 5.63758C272.441 6.04307 272.252 6.52984 272.252 7.09743C272.252 7.39516 272.306 7.68557 272.414 7.96944C272.522 8.25331 272.684 8.51695 272.901 8.76034L279.146 16.02C279.579 16.5066 279.937 16.9526 280.221 17.3582C280.505 17.7637 280.728 18.1563 280.89 18.5345C281.052 18.9134 281.167 19.305 281.235 19.7105C281.302 20.116 281.336 20.5761 281.336 21.0895C281.336 22.009 281.154 22.9011 280.789 23.7661C280.424 24.6318 279.923 25.3954 279.288 26.0575C278.653 26.7204 277.903 27.2477 277.038 27.6393C276.172 28.0309 275.239 28.2274 274.239 28.2274C273.266 28.2274 272.346 28.0378 271.481 27.6595C270.616 27.2813 269.859 26.7674 269.21 26.1184C268.561 25.4697 268.054 24.7129 267.689 23.8474C267.325 22.9823 267.142 22.0629 267.142 21.0895V19.7918C267.142 19.4944 267.243 19.2784 267.446 19.1428C267.649 19.0077 267.831 18.94 267.993 18.94H271.319C271.725 18.94 271.961 19.163 272.029 19.6093C272.096 20.0552 272.164 20.542 272.232 21.0691C272.299 21.5964 272.455 22.0768 272.698 22.509C272.941 22.9419 273.455 23.1578 274.239 23.1578C274.807 23.1578 275.294 22.962 275.699 22.5698C276.105 22.1782 276.308 21.6845 276.308 21.0895C276.308 20.8197 276.213 20.5356 276.024 20.2378C275.834 19.9405 275.618 19.6434 275.375 19.3455L269.129 12.1265Z" fill="white"/>
<path d="M286.122 1.21677C286.122 1.00063 286.216 0.811276 286.406 0.648863C286.594 0.486762 286.811 0.405632 287.055 0.405632H299.384C299.6 0.405632 299.803 0.473369 299.992 0.608375C300.181 0.744005 300.289 0.946755 300.317 1.21677V4.46128C300.317 4.73192 300.235 4.96191 300.073 5.15064C299.911 5.34031 299.681 5.43467 299.384 5.43467H295.734V26.8482C295.734 27.0377 295.646 27.2405 295.47 27.4566C295.294 27.6734 295.098 27.7811 294.882 27.7811H291.597C291.435 27.7811 291.245 27.6796 291.029 27.4769C290.812 27.2741 290.705 27.065 290.705 26.8484V5.43482H287.055C286.811 5.43482 286.594 5.34731 286.406 5.17119C286.216 4.99554 286.122 4.75917 286.122 4.46144V1.21677Z" fill="white"/>
<path d="M307.414 1.01402C307.549 0.635788 307.765 0.433038 308.063 0.405632H311.997C312.294 0.48676 312.497 0.68951 312.605 1.01402L317.837 26.9294C317.837 27.4432 317.539 27.7274 316.945 27.7811H313.538C313.403 27.7811 313.247 27.7343 313.072 27.6393C312.896 27.5449 312.794 27.4029 312.768 27.2136L312.24 24.4556H307.739L307.252 27.2136C307.171 27.5652 306.941 27.7545 306.563 27.7813H302.994C302.804 27.7813 302.629 27.7204 302.466 27.5988C302.304 27.477 302.223 27.3087 302.223 27.0919C302.223 27.0653 302.229 27.0451 302.243 27.0311C302.257 27.0177 302.264 26.9842 302.264 26.9295L307.414 1.01402ZM310.01 12.3292L308.671 19.5076H311.348L310.01 12.3292Z" fill="white"/>
<path d="M163.626 49.5074H104.433V50.2578H163.626V49.5074Z" fill="white"/>
<path d="M164.295 48.7569H103.765V51.0082H164.295V48.7569Z" fill="white"/>
<path d="M317.647 48.7059H257.294V50.8235H317.647V48.7059Z" fill="white"/>
<path d="M178.292 43.8005C178.292 42.8538 178.469 41.9601 178.824 41.1182C179.179 40.2768 179.673 39.5401 180.304 38.9089C180.935 38.2777 181.671 37.7846 182.513 37.4296C183.354 37.0745 184.249 36.897 185.195 36.897H187.207C187.417 36.897 187.602 36.9696 187.759 37.1139C187.917 37.2587 187.996 37.4629 187.996 37.7254V40.9997C187.996 41.2105 187.923 41.3943 187.779 41.5518C187.634 41.7097 187.444 41.7887 187.207 41.7887H185.195C184.643 41.7887 184.17 41.9858 183.775 42.3804C183.381 42.7748 183.183 43.2482 183.183 43.8005V45.7335C183.183 46.2858 183.381 46.7592 183.775 47.1536C184.17 47.5482 184.643 47.7453 185.195 47.7453H187.207V46.2068C187.207 45.9966 187.279 45.8123 187.424 45.6545C187.568 45.4968 187.772 45.4178 188.036 45.4178H191.31C191.783 45.4178 192.046 45.6811 192.099 46.2068V47.7453H193.637C193.848 47.7453 194.032 47.818 194.19 47.9622C194.347 48.1071 194.426 48.3112 194.426 48.5737V51.848C194.426 52.3215 194.163 52.5845 193.637 52.637H192.099V57.0158C192.099 57.9625 191.921 58.857 191.566 59.6983C191.211 60.5403 190.718 61.2762 190.087 61.9075C189.456 62.5387 188.719 63.0319 187.878 63.3868C187.036 63.7418 186.142 63.9195 185.195 63.9195C184.248 63.9195 183.354 63.7418 182.513 63.3868C181.671 63.0319 180.935 62.5387 180.303 61.9075C179.672 61.2763 179.179 60.5403 178.824 59.6983C178.469 58.857 178.292 57.9625 178.292 57.0158V54.6489C178.292 53.8075 178.43 53.0056 178.706 52.2424C178.982 51.48 179.383 50.7963 179.909 50.191C178.83 48.9552 178.292 47.4691 178.292 45.7333L178.292 43.8005ZM185.195 52.6372C184.643 52.6372 184.17 52.8343 183.775 53.2289C183.381 53.6235 183.183 54.0967 183.183 54.649V57.0159C183.183 57.5681 183.381 58.0416 183.775 58.4361C184.17 58.8307 184.643 59.0278 185.195 59.0278C185.748 59.0278 186.221 58.8307 186.615 58.4361C187.01 58.0415 187.207 57.5681 187.207 57.0159V52.6372H185.195Z" fill="white"/>
<path d="M208.812 43.4061C208.812 42.4594 208.99 41.5657 209.344 40.7238C209.699 39.8824 210.193 39.1459 210.824 38.5146C211.455 37.8833 212.191 37.3903 213.033 37.0351C213.874 36.6801 214.769 36.5026 215.716 36.5026C216.662 36.5026 217.556 36.6801 218.398 37.0351C219.239 37.3902 219.976 37.8833 220.607 38.5146C221.239 39.1459 221.732 39.8823 222.087 40.7238C222.442 41.5657 222.619 42.4594 222.619 43.4061V44.5897C222.619 44.8264 222.553 45.0236 222.422 45.1815C222.29 45.3392 222.106 45.4181 221.87 45.4181H218.595C218.359 45.4181 218.155 45.3392 217.984 45.1815C217.812 45.0236 217.728 44.8264 217.728 44.5897V43.4061C217.728 42.854 217.53 42.3806 217.136 41.986C216.741 41.5914 216.268 41.3943 215.716 41.3943C215.163 41.3943 214.69 41.5914 214.295 41.986C213.901 42.3806 213.704 42.8538 213.704 43.4061V57.0159C213.704 57.5681 213.901 58.0416 214.295 58.4361C214.69 58.8307 215.163 59.0278 215.716 59.0278C216.268 59.0278 216.742 58.8307 217.136 58.4361C217.53 58.0415 217.728 57.5681 217.728 57.0159V55.8325C217.728 55.6223 217.813 55.4183 217.984 55.221C218.155 55.0237 218.359 54.9251 218.595 54.9251H221.751C221.962 54.9251 222.159 54.9979 222.343 55.1421C222.527 55.2869 222.619 55.5038 222.619 55.7929V57.0158C222.619 57.9625 222.442 58.857 222.087 59.6983C221.732 60.5403 221.238 61.2762 220.607 61.9075C219.976 62.5387 219.24 63.0319 218.398 63.3868C217.556 63.7418 216.662 63.9195 215.716 63.9195C214.663 63.9195 213.71 63.7418 212.856 63.3868C212.001 63.0319 211.278 62.5387 210.686 61.9075C210.094 61.2763 209.634 60.5403 209.305 59.6983C208.976 58.857 208.812 57.9625 208.812 57.0158L208.812 43.4061Z" fill="white"/>
<path d="M229.206 43.4061C229.206 42.4594 229.384 41.5657 229.739 40.7238C230.094 39.8824 230.587 39.1459 231.218 38.5146C231.85 37.8835 232.586 37.3903 233.428 37.0351C234.269 36.6801 235.163 36.5026 236.11 36.5026C237.057 36.5026 237.951 36.6801 238.793 37.0351C239.634 37.3902 240.37 37.8833 241.002 38.5146C241.633 39.1459 242.126 39.8823 242.481 40.7238C242.836 41.5657 243.014 42.4594 243.014 43.4061V57.0159C243.014 57.9627 242.836 58.8571 242.481 59.6985C242.126 60.5404 241.633 61.2764 241.002 61.9076C240.37 62.5389 239.634 63.0321 238.793 63.3869C237.951 63.742 237.057 63.9196 236.11 63.9196C235.163 63.9196 234.269 63.742 233.428 63.3869C232.586 63.0321 231.85 62.5389 231.218 61.9076C230.587 61.2765 230.094 60.5404 229.739 59.6985C229.384 58.8571 229.206 57.9627 229.206 57.0159V43.4061ZM238.122 43.4061C238.122 42.854 237.925 42.3806 237.53 41.986C237.136 41.5914 236.662 41.3943 236.11 41.3943C235.558 41.3943 235.084 41.5914 234.69 41.986C234.295 42.3806 234.098 42.8538 234.098 43.4061V57.0159C234.098 57.5681 234.295 58.0416 234.69 58.4361C235.084 58.8307 235.558 59.0278 236.11 59.0278C236.662 59.0278 237.136 58.8307 237.53 58.4361C237.925 58.0415 238.122 57.5681 238.122 57.0159V43.4061Z" fill="white"/>
<path d="M243.451 67.9673H228.737C228.393 67.9673 228.114 68.2462 228.114 68.5902V71.5909C228.114 71.9349 228.393 72.2138 228.737 72.2138H243.451C243.795 72.2138 244.074 71.9349 244.074 71.5909V68.5902C244.074 68.2462 243.795 67.9673 243.451 67.9673Z" fill="white"/>
</svg>
