<svg width="225" height="141" viewBox="0 0 225 141" fill="none" xmlns="http://www.w3.org/2000/svg">
<path d="M7.41309 77.0921C7.41309 76.137 7.59204 75.2352 7.95042 74.3854C8.30865 73.5366 8.80625 72.7933 9.44293 72.1563C10.0799 71.5196 10.8223 71.0219 11.6721 70.6638C12.5209 70.3054 13.4233 70.1265 14.3788 70.1265C15.3339 70.1265 16.2358 70.3054 17.0855 70.6638C17.9343 71.022 18.6776 71.5196 19.3143 72.1563C19.9513 72.7933 20.4489 73.5365 20.807 74.3854C21.165 75.235 21.3443 76.1368 21.3443 77.0921V78.2862C21.3443 78.525 21.2778 78.724 21.1453 78.8833C21.0122 79.0427 20.8268 79.1222 20.5881 79.1222H17.2845C17.0456 79.1222 16.8397 79.0425 16.6673 78.8833C16.4945 78.7242 16.4088 78.525 16.4088 78.2862V77.0921C16.4088 76.5349 16.2098 76.0574 15.8117 75.6594C15.4137 75.2614 14.9358 75.0623 14.3786 75.0623C13.8213 75.0623 13.3437 75.2613 12.9456 75.6594C12.5476 76.0574 12.3485 76.5351 12.3485 77.0921V90.8244C12.3485 91.3816 12.5474 91.8592 12.9456 92.2571C13.3435 92.6551 13.8213 92.8542 14.3786 92.8542C14.9358 92.8542 15.4136 92.6552 15.8117 92.2571C16.2096 91.8592 16.4088 91.3816 16.4088 90.8244V89.6303C16.4088 89.4182 16.4945 89.2122 16.6673 89.0132C16.8397 88.8143 17.0456 88.7148 17.2845 88.7148H20.4688C20.6809 88.7148 20.8799 88.7881 21.0659 88.9336C21.2512 89.0799 21.3445 89.2987 21.3445 89.5903V90.8242C21.3445 91.7794 21.1653 92.6818 20.8071 93.531C20.4489 94.3804 19.9513 95.1231 19.3145 95.7598C18.6778 96.3968 17.9344 96.8942 17.0856 97.2524C16.2361 97.6105 15.3342 97.7898 14.3789 97.7898C13.3172 97.7898 12.3552 97.6107 11.4931 97.2524C10.6305 96.894 9.90095 96.3966 9.30386 95.7598C8.70676 95.1231 8.24233 94.3804 7.91069 93.531C7.5786 92.6818 7.41324 91.7796 7.41324 90.8242V77.0921H7.41309Z" fill="#1E1E1E"/>
<path d="M30.778 71.1218C30.9104 70.7505 31.1225 70.5516 31.4147 70.5247H35.2757C35.5675 70.6043 35.7665 70.8033 35.8728 71.1218L41.0073 96.5561C41.0073 97.0604 40.7151 97.3393 40.1316 97.392H36.7881C36.6551 97.392 36.5028 97.346 36.3305 97.2528C36.1575 97.1602 36.058 97.0208 36.0319 96.835L35.5144 94.1283H31.0962L30.6186 96.835C30.539 97.1801 30.3133 97.3659 29.9421 97.3922H26.4393C26.2533 97.3922 26.0811 97.3325 25.9218 97.2131C25.7627 97.0936 25.6831 96.9284 25.6831 96.7156C25.6831 96.6895 25.6892 96.6696 25.703 96.6559C25.7161 96.6427 25.7228 96.6099 25.7228 96.5562L30.778 71.1218ZM33.3254 82.2269L32.0118 89.2721H34.6389L33.3254 82.2269Z" fill="#1E1E1E"/>
<path d="M47.2162 82.0278C46.5796 81.2851 46.1081 80.5289 45.8034 79.7591C45.498 78.9897 45.3456 78.101 45.3456 77.0921C45.3456 76.137 45.5248 75.2352 45.883 74.3854C46.2414 73.5366 46.7251 72.7933 47.3358 72.1563C47.9458 71.5196 48.6754 71.0219 49.525 70.6638C50.3741 70.3054 51.2764 70.1265 52.2317 70.1265C53.1872 70.1265 54.0887 70.3054 54.9384 70.6638C55.7872 71.022 56.5168 71.5196 57.1277 72.1563C57.7377 72.7933 58.2224 73.5365 58.5804 74.3854C58.9387 75.235 59.1178 76.1368 59.1178 77.0921V78.2466C59.1178 78.5121 59.0245 78.7242 58.8392 78.8833C58.6532 79.0427 58.4542 79.1222 58.2421 79.1222H55.0179C54.8052 79.1222 54.6131 79.0493 54.4407 78.9033C54.2678 78.7577 54.1821 78.5519 54.1821 78.2862C54.1821 77.3844 54.0757 76.6214 53.8636 75.9976C53.6509 75.3744 53.1072 75.0623 52.2316 75.0623C51.6743 75.0623 51.2097 75.2613 50.8384 75.6594C50.4666 76.0574 50.2812 76.5351 50.2812 77.0921C50.2812 77.3844 50.3339 77.6694 50.4403 77.948C50.546 78.2266 50.7051 78.4853 50.9179 78.7242L57.0476 85.8491C57.4718 86.3267 57.8238 86.7644 58.1024 87.1625C58.381 87.5605 58.5998 87.9457 58.7591 88.317C58.9182 88.6888 59.0307 89.0731 59.0974 89.4711C59.1633 89.8691 59.1969 90.3207 59.1969 90.8246C59.1969 91.727 59.018 92.6025 58.6596 93.4515C58.3014 94.301 57.8102 95.0505 57.187 95.7003C56.5631 96.3509 55.8268 96.8684 54.978 97.2527C54.1284 97.6371 53.2129 97.83 52.2314 97.83C51.2762 97.83 50.3738 97.6438 49.5247 97.2726C48.6753 96.9014 47.9325 96.3971 47.2959 95.7601C46.6589 95.1234 46.1613 94.3807 45.8032 93.5313C45.4451 92.6821 45.2659 91.7799 45.2659 90.8246V89.5509C45.2659 89.259 45.3652 89.047 45.5643 88.9139C45.7633 88.7814 45.9426 88.7149 46.1017 88.7149H49.3657C49.7637 88.7149 49.9957 88.9338 50.0622 89.3718C50.1282 89.8095 50.1947 90.2872 50.2612 90.8045C50.3272 91.322 50.4802 91.7935 50.7189 92.2177C50.9577 92.6426 51.4616 92.8544 52.2314 92.8544C52.7888 92.8544 53.2663 92.6623 53.6645 92.2773C54.0624 91.893 54.2616 91.4085 54.2616 90.8246C54.2616 90.5597 54.1683 90.2809 53.9829 89.9886C53.7968 89.6968 53.585 89.4052 53.346 89.1129L47.2162 82.0278Z" fill="#1E1E1E"/>
<path d="M68.5508 71.1218C68.6832 70.7505 68.8953 70.5516 69.1875 70.5247H73.0485C73.3403 70.6043 73.5393 70.8033 73.6456 71.1218L78.7801 96.5561C78.7801 97.0604 78.4879 97.3393 77.9044 97.392H74.5609C74.4279 97.392 74.2756 97.346 74.1033 97.2528C73.9303 97.1602 73.8308 97.0208 73.8047 96.835L73.2872 94.1283H68.869L68.3914 96.835C68.3118 97.1801 68.0861 97.3659 67.7149 97.3922H64.2122C64.0263 97.3922 63.854 97.3325 63.6948 97.2131C63.5357 97.0936 63.4561 96.9284 63.4561 96.7156C63.4561 96.6895 63.4622 96.6696 63.4759 96.6559C63.4891 96.6427 63.4958 96.6099 63.4958 96.5562L68.5508 71.1218ZM71.0982 82.2269L69.7846 89.2721H72.4117L71.0982 82.2269Z" fill="#1E1E1E"/>
<path d="M97.9646 71.4004C97.9646 71.1882 98.0442 70.9893 98.2033 70.8033C98.3627 70.6179 98.5877 70.5247 98.8799 70.5247H104.93C105.885 70.5247 106.787 70.7036 107.637 71.062C108.486 71.4201 109.229 71.9178 109.866 72.5545C110.503 73.1915 111 73.9347 111.358 74.7836C111.717 75.6332 111.896 76.535 111.896 77.4903V79.6794C111.896 81.2983 111.431 82.6915 110.503 83.8589L110.343 84.018C110.608 84.3365 110.841 84.6486 111.04 84.9533C111.239 85.2587 111.404 85.5772 111.537 85.9085C111.67 86.2406 111.762 86.6051 111.816 87.0032C111.869 87.4012 111.896 87.8657 111.896 88.3964V90.4264C111.896 91.3815 111.717 92.284 111.358 93.1331C111 93.9825 110.502 94.7252 109.866 95.3619C109.229 95.9989 108.486 96.4963 107.637 96.8545C106.787 97.2128 105.885 97.3919 104.93 97.3919H98.8799C98.6412 97.3919 98.4284 97.326 98.2432 97.1929C98.0574 97.0604 97.9646 96.8882 97.9646 96.6754V71.4004ZM102.9 75.4604V81.4706H104.93C105.487 81.4706 105.965 81.2716 106.363 80.8735C106.761 80.4755 106.96 79.9978 106.96 79.4407V77.4902C106.96 76.933 106.761 76.4554 106.363 76.0574C105.965 75.6595 105.487 75.4604 104.93 75.4604H102.9ZM102.9 86.4063V92.4564H104.93C105.487 92.4564 105.965 92.2574 106.363 91.8593C106.761 91.4613 106.96 90.9836 106.96 90.4265V88.4364C106.96 87.879 106.761 87.4015 106.363 87.0034C105.965 86.6054 105.487 86.4063 104.93 86.4063H102.9Z" fill="#1E1E1E"/>
<path d="M121.449 71.1218C121.581 70.7505 121.793 70.5516 122.085 70.5247H125.946C126.238 70.6043 126.437 70.8033 126.543 71.1218L131.678 96.5561C131.678 97.0604 131.386 97.3393 130.802 97.392H127.459C127.326 97.392 127.174 97.346 127.001 97.2528C126.828 97.1602 126.729 97.0208 126.703 96.835L126.185 94.1283H121.767L121.289 96.835C121.21 97.1801 120.984 97.3659 120.613 97.3922H117.11C116.924 97.3922 116.752 97.3325 116.593 97.2131C116.434 97.0936 116.354 96.9284 116.354 96.7156C116.354 96.6895 116.36 96.6696 116.374 96.6559C116.387 96.6427 116.394 96.6099 116.394 96.5562L121.449 71.1218ZM123.996 82.2269L122.682 89.2721H125.309L123.996 82.2269Z" fill="#1E1E1E"/>
<path d="M136.693 71.3207C136.693 70.8697 136.945 70.6179 137.449 70.5644L143.658 70.5247C144.614 70.5247 145.515 70.6908 146.365 71.0221C147.214 71.3542 147.957 71.8251 148.594 72.4353C149.231 73.046 149.728 73.7756 150.087 74.6245C150.445 75.4741 150.624 76.4294 150.624 77.4903V79.4409C150.624 80.8736 150.371 82.0149 149.868 82.8639C149.363 83.7136 148.739 84.3504 147.997 84.7745L151.301 96.2778C151.327 96.3574 151.34 96.4768 151.34 96.6362C151.34 96.9016 151.267 97.0937 151.121 97.2132C150.975 97.3328 150.796 97.3924 150.584 97.3924H147.041C146.829 97.3924 146.683 97.3265 146.604 97.1934C146.524 97.0609 146.457 96.9285 146.405 96.7954L143.34 86.4067H141.628V96.4769C141.628 96.6897 141.549 96.8948 141.39 97.0937C141.231 97.2927 141.031 97.3924 140.793 97.3924H137.568C137.356 97.3924 137.157 97.2927 136.971 97.0937C136.785 96.8948 136.693 96.6895 136.693 96.4769V71.3207H136.693ZM141.628 75.4604V81.4706H143.658C144.216 81.4706 144.693 81.2716 145.091 80.8735C145.489 80.4755 145.688 79.9978 145.688 79.4407V77.4902C145.688 76.933 145.489 76.4554 145.091 76.0574C144.693 75.6595 144.216 75.4604 143.658 75.4604H141.628Z" fill="#1E1E1E"/>
<path d="M157.151 71.3207C157.151 71.1086 157.217 70.9228 157.35 70.7634C157.482 70.6043 157.681 70.5247 157.947 70.5247H161.211C161.396 70.5247 161.589 70.598 161.788 70.7435C161.987 70.8898 162.087 71.0819 162.087 71.3207V96.596C162.087 97.1272 161.794 97.392 161.211 97.392H157.947C157.416 97.392 157.151 97.1272 157.151 96.596V71.3207Z" fill="#1E1E1E"/>
<path d="M169.57 82.0278C168.933 81.2851 168.461 80.5289 168.157 79.7591C167.851 78.9897 167.699 78.101 167.699 77.0921C167.699 76.137 167.878 75.2352 168.236 74.3854C168.595 73.5366 169.078 72.7933 169.689 72.1563C170.299 71.5196 171.029 71.0219 171.878 70.6638C172.727 70.3054 173.63 70.1265 174.585 70.1265C175.54 70.1265 176.442 70.3054 177.292 70.6638C178.14 71.022 178.87 71.5196 179.481 72.1563C180.091 72.7933 180.576 73.5365 180.934 74.3854C181.292 75.235 181.471 76.1368 181.471 77.0921V78.2466C181.471 78.5121 181.378 78.7242 181.192 78.8833C181.006 79.0427 180.807 79.1222 180.595 79.1222H177.371C177.158 79.1222 176.966 79.0493 176.794 78.9033C176.621 78.7577 176.535 78.5519 176.535 78.2862C176.535 77.3844 176.429 76.6214 176.217 75.9976C176.004 75.3744 175.461 75.0623 174.585 75.0623C174.028 75.0623 173.563 75.2613 173.192 75.6594C172.82 76.0574 172.634 76.5351 172.634 77.0921C172.634 77.3844 172.687 77.6694 172.794 77.948C172.899 78.2266 173.058 78.4853 173.271 78.7242L179.401 85.8491C179.825 86.3267 180.177 86.7644 180.456 87.1625C180.734 87.5605 180.953 87.9457 181.112 88.317C181.271 88.6888 181.384 89.0731 181.451 89.4711C181.517 89.8691 181.55 90.3207 181.55 90.8246C181.55 91.727 181.371 92.6025 181.013 93.4515C180.655 94.301 180.163 95.0505 179.54 95.7003C178.916 96.3509 178.18 96.8684 177.331 97.2527C176.482 97.6371 175.566 97.83 174.585 97.83C173.63 97.83 172.727 97.6438 171.878 97.2726C171.029 96.9014 170.286 96.3971 169.649 95.7601C169.012 95.1234 168.515 94.3807 168.156 93.5313C167.798 92.6821 167.619 91.7799 167.619 90.8246V89.5509C167.619 89.259 167.719 89.047 167.918 88.9139C168.117 88.7814 168.296 88.7149 168.455 88.7149H171.719C172.117 88.7149 172.349 88.9338 172.415 89.3718C172.481 89.8095 172.548 90.2872 172.614 90.8045C172.68 91.322 172.833 91.7935 173.072 92.2177C173.311 92.6426 173.815 92.8544 174.585 92.8544C175.142 92.8544 175.62 92.6623 176.018 92.2773C176.416 91.893 176.615 91.4085 176.615 90.8246C176.615 90.5597 176.522 90.2809 176.336 89.9886C176.15 89.6968 175.938 89.4052 175.699 89.1129L169.57 82.0278Z" fill="#1E1E1E"/>
<path d="M186.247 71.3207C186.247 71.1086 186.339 70.9228 186.525 70.7634C186.711 70.6043 186.923 70.5247 187.162 70.5247H199.262C199.474 70.5247 199.673 70.5911 199.859 70.7236C200.045 70.8568 200.151 71.0557 200.178 71.3207V74.505C200.178 74.7706 200.098 74.9964 199.939 75.1816C199.78 75.3677 199.554 75.4604 199.263 75.4604H195.68V96.4765C195.68 96.6624 195.594 96.8614 195.422 97.0736C195.249 97.2863 195.056 97.392 194.844 97.392H191.62C191.461 97.392 191.275 97.2924 191.063 97.0934C190.85 96.8944 190.744 96.6892 190.744 96.4766V75.4605H187.162C186.923 75.4605 186.711 75.3746 186.525 75.2018C186.339 75.0294 186.247 74.7974 186.247 74.5052V71.3207Z" fill="#1E1E1E"/>
<path d="M207.144 71.1218C207.276 70.7505 207.488 70.5516 207.781 70.5247H211.642C211.933 70.6043 212.132 70.8033 212.239 71.1218L217.373 96.5561C217.373 97.0604 217.081 97.3393 216.498 97.392H213.154C213.021 97.392 212.869 97.346 212.697 97.2528C212.524 97.1602 212.424 97.0208 212.398 96.835L211.88 94.1283H207.462L206.985 96.835C206.905 97.1801 206.679 97.3659 206.308 97.3922H202.805C202.619 97.3922 202.447 97.3325 202.288 97.2131C202.129 97.0936 202.049 96.9284 202.049 96.7156C202.049 96.6895 202.055 96.6696 202.069 96.6559C202.082 96.6427 202.089 96.6099 202.089 96.5562L207.144 71.1218ZM209.691 82.2269L208.378 89.2721H211.005L209.691 82.2269Z" fill="#1E1E1E"/>
<path d="M65.9443 118.715H0.736572V119.451H65.9443V118.715Z" fill="#1E1E1E"/>
<path d="M66.6807 117.978H0V120.188H66.6807V117.978Z" fill="#1E1E1E"/>
<path d="M224.05 118.711H158.842V119.448H224.05V118.711Z" fill="#1E1E1E"/>
<path d="M224.786 117.975H158.106V120.184H224.786V117.975Z" fill="#1E1E1E"/>
<path d="M149.224 56.4039C149.131 55.8866 148.845 55.5005 148.385 55.2445C148.027 55.0456 147.67 54.8464 147.31 54.6464C147.324 54.5918 147.333 54.5518 147.344 54.5123C147.944 52.4218 148.391 50.2994 148.68 48.1433C148.999 45.7604 149.132 43.3684 149.08 40.9646C149.031 38.7111 148.823 36.4736 148.46 34.2492C148.051 31.737 147.446 29.2729 146.651 26.8556C145.211 22.4823 143.205 18.3867 140.617 14.5783C138.607 11.6208 136.298 8.9188 133.673 6.48947C133.28 6.1262 132.88 5.77148 132.477 5.40669C132.84 4.75274 133.198 4.102 133.561 3.4531C134.048 2.58168 133.777 1.60741 132.909 1.12173C132.369 0.819743 131.827 0.519896 131.285 0.22112C130.452 -0.238735 129.473 0.0386515 129.006 0.867583C128.79 1.25118 128.578 1.63736 128.364 2.02203C128.334 2.07689 128.3 2.13008 128.275 2.17073C127.273 1.54949 126.288 0.939106 125.304 0.328716C125.265 0.376704 125.248 0.393508 125.237 0.413375C124.762 1.22488 124.276 2.03014 123.816 2.85036C123.284 3.7988 123.411 4.9887 124.159 5.78845C124.451 6.10036 124.837 6.32457 125.184 6.58422C125.334 6.697 125.494 6.79832 125.65 6.90561C125.237 7.6514 124.836 8.37503 124.434 9.09821C121.644 14.1236 118.853 19.1489 116.063 24.1743C114.572 26.8585 113.082 29.5428 111.592 32.2276C111.541 32.3208 111.491 32.3806 111.365 32.3832C108.882 32.4345 106.772 34.1722 106.243 36.5992C106.215 36.727 106.155 36.7851 106.037 36.8303C98.8214 39.6052 91.607 42.3831 84.3925 45.1609C81.7674 46.1717 79.1423 47.1826 76.5176 48.1942C76.0069 48.391 75.6907 48.7587 75.567 49.2921C75.5606 49.3199 75.5446 49.3454 75.533 49.372C75.533 49.527 75.533 49.6818 75.533 49.8368C75.8226 50.6035 76.1081 51.3717 76.4032 52.1363C76.7573 53.0536 77.5625 53.4047 78.4828 53.0503C83.6274 51.0696 88.772 49.0888 93.9165 47.1079C98.5057 45.3406 103.095 43.5733 107.683 41.8028C107.804 41.7564 107.881 41.768 107.982 41.8532C109.779 43.3699 112.216 43.5916 114.243 42.4236C114.347 42.3637 114.416 42.3709 114.516 42.4262C119.03 44.9358 123.546 47.442 128.061 49.9494C132.218 52.2572 136.374 54.5657 140.53 56.8741C140.612 56.9198 140.694 56.9664 140.786 57.0188C140.725 57.1682 140.67 57.3048 140.613 57.4407C140.064 58.7484 140.626 60.2038 141.907 60.8151C142.702 61.1941 143.49 61.5867 144.28 61.9743C144.305 61.9863 144.325 62.0091 144.347 62.0268C144.371 62.0268 144.394 62.0268 144.418 62.0268C144.446 61.9501 144.469 61.8709 144.503 61.7971C144.813 61.1284 145.126 60.4605 145.438 59.7923C145.46 59.7456 145.483 59.6993 145.511 59.6424C145.631 59.7081 145.739 59.7682 145.849 59.8277C146.669 60.2745 147.645 60.0029 148.105 59.1931C148.428 58.6241 148.743 58.0501 149.059 57.477C149.244 57.1403 149.291 56.7771 149.224 56.4039ZM111.52 39.8758C110.348 39.8758 109.397 38.9252 109.397 37.7526C109.397 36.58 110.348 35.6294 111.52 35.6294C112.693 35.6294 113.644 36.58 113.644 37.7526C113.644 38.9252 112.693 39.8758 111.52 39.8758ZM142.483 51.9623C142.391 51.9132 142.324 51.8785 142.258 51.8417C134.824 47.7138 127.391 43.586 119.958 39.458C118.99 38.9205 118.023 38.3816 117.053 37.8483C116.946 37.7897 116.898 37.7223 116.896 37.6001C116.88 36.6685 116.617 35.8082 116.15 35.0048C116.119 34.9513 116.134 34.8443 116.168 34.7842C117.232 32.8568 118.302 30.9323 119.371 29.0072C122.802 22.8272 126.233 16.6474 129.665 10.4675C129.707 10.3908 129.752 10.3155 129.81 10.216C135.656 15.654 139.693 22.1906 141.945 29.8163C144.107 37.135 144.338 44.5144 142.483 51.9623Z" fill="#CF7A37"/>
<path d="M80.4179 113.114C80.4179 112.185 80.5921 111.308 80.9405 110.481C81.289 109.655 81.773 108.932 82.3924 108.313C83.0118 107.693 83.7341 107.209 84.5606 106.861C85.3863 106.513 86.2641 106.338 87.1933 106.338H89.1678C89.3741 106.338 89.5549 106.41 89.7097 106.551C89.8646 106.693 89.942 106.894 89.942 107.151V110.365C89.942 110.572 89.8707 110.752 89.7292 110.907C89.587 111.062 89.4001 111.139 89.1678 111.139H87.1933C86.6514 111.139 86.1868 111.333 85.7995 111.72C85.4124 112.107 85.2188 112.572 85.2188 113.114V115.011C85.2188 115.553 85.4124 116.018 85.7995 116.405C86.1868 116.792 86.6514 116.985 87.1933 116.985H89.1678V115.475C89.1678 115.269 89.2386 115.088 89.3807 114.933C89.5224 114.779 89.7224 114.701 89.9809 114.701H93.1943C93.6589 114.701 93.9166 114.959 93.9687 115.475V116.985H95.4786C95.685 116.985 95.8658 117.057 96.0206 117.198C96.1754 117.34 96.2529 117.541 96.2529 117.798V121.012C96.2529 121.477 95.9946 121.735 95.4785 121.786H93.9686V126.084C93.9686 127.013 93.7943 127.891 93.4459 128.716C93.0974 129.543 92.6134 130.265 91.994 130.885C91.3746 131.504 90.6516 131.988 89.8259 132.336C88.9996 132.685 88.1223 132.859 87.1931 132.859C86.264 132.859 85.3863 132.685 84.5604 132.336C83.7341 131.988 83.0118 131.504 82.3922 130.885C81.7728 130.265 81.2888 129.543 80.9404 128.716C80.5919 127.891 80.4177 127.013 80.4177 126.084V123.761C80.4177 122.935 80.5533 122.148 80.8242 121.399C81.0952 120.651 81.4884 119.98 82.0051 119.386C80.9465 118.173 80.4177 116.714 80.4177 115.011V113.114H80.4179ZM87.1933 121.786C86.6514 121.786 86.1868 121.98 85.7995 122.367C85.4124 122.754 85.2188 123.219 85.2188 123.761V126.084C85.2188 126.626 85.4124 127.091 85.7995 127.478C86.1868 127.865 86.6514 128.058 87.1933 128.058C87.7354 128.058 88.2 127.865 88.5871 127.478C88.9743 127.09 89.1678 126.626 89.1678 126.084V121.786H87.1933Z" fill="#1E1E1E"/>
<path d="M110.372 112.727C110.372 111.798 110.546 110.921 110.894 110.094C111.243 109.269 111.727 108.546 112.346 107.926C112.966 107.307 113.688 106.823 114.514 106.474C115.34 106.126 116.218 105.951 117.147 105.951C118.076 105.951 118.953 106.126 119.78 106.474C120.605 106.823 121.328 107.307 121.948 107.926C122.568 108.546 123.051 109.268 123.4 110.094C123.748 110.921 123.922 111.798 123.922 112.727V113.888C123.922 114.121 123.858 114.314 123.729 114.469C123.599 114.624 123.419 114.702 123.187 114.702H119.974C119.741 114.702 119.541 114.624 119.373 114.469C119.205 114.314 119.122 114.121 119.122 113.888V112.727C119.122 112.185 118.928 111.72 118.541 111.333C118.154 110.946 117.689 110.752 117.147 110.752C116.605 110.752 116.141 110.946 115.753 111.333C115.366 111.72 115.172 112.185 115.172 112.727V126.084C115.172 126.626 115.366 127.091 115.753 127.478C116.14 127.865 116.605 128.059 117.147 128.059C117.689 128.059 118.154 127.865 118.541 127.478C118.928 127.091 119.122 126.626 119.122 126.084V124.923C119.122 124.716 119.205 124.516 119.373 124.322C119.541 124.129 119.741 124.032 119.974 124.032H123.071C123.277 124.032 123.47 124.103 123.652 124.245C123.832 124.387 123.922 124.6 123.922 124.884V126.084C123.922 127.013 123.748 127.891 123.4 128.717C123.051 129.543 122.567 130.265 121.948 130.885C121.329 131.504 120.606 131.988 119.78 132.337C118.953 132.685 118.076 132.859 117.147 132.859C116.114 132.859 115.179 132.685 114.34 132.337C113.501 131.988 112.791 131.504 112.211 130.885C111.63 130.265 111.178 129.543 110.856 128.717C110.533 127.891 110.372 127.013 110.372 126.084V112.727H110.372Z" fill="#1E1E1E"/>
<path d="M130.388 112.727C130.388 111.798 130.562 110.921 130.91 110.094C131.259 109.269 131.743 108.546 132.362 107.926C132.982 107.307 133.704 106.823 134.531 106.474C135.356 106.126 136.234 105.951 137.163 105.951C138.092 105.951 138.97 106.126 139.796 106.474C140.622 106.823 141.344 107.307 141.964 107.926C142.584 108.546 143.067 109.268 143.416 110.094C143.764 110.921 143.939 111.798 143.939 112.727V126.084C143.939 127.013 143.764 127.891 143.416 128.717C143.068 129.543 142.584 130.265 141.964 130.885C141.344 131.504 140.622 131.988 139.796 132.337C138.97 132.685 138.092 132.86 137.163 132.86C136.234 132.86 135.356 132.685 134.531 132.337C133.704 131.988 132.982 131.504 132.362 130.885C131.743 130.266 131.259 129.543 130.91 128.717C130.562 127.891 130.388 127.013 130.388 126.084V112.727ZM139.138 112.727C139.138 112.185 138.944 111.72 138.557 111.333C138.17 110.946 137.705 110.752 137.163 110.752C136.621 110.752 136.156 110.946 135.769 111.333C135.382 111.72 135.189 112.185 135.189 112.727V126.084C135.189 126.626 135.382 127.091 135.769 127.478C136.156 127.865 136.621 128.059 137.163 128.059C137.705 128.059 138.17 127.865 138.557 127.478C138.944 127.091 139.138 126.626 139.138 126.084V112.727Z" fill="#1E1E1E"/>
<path d="M144.368 136.832H129.927C129.589 136.832 129.315 137.106 129.315 137.443V140.388C129.315 140.726 129.589 141 129.927 141H144.368C144.706 141 144.98 140.726 144.98 140.388V137.443C144.98 137.106 144.706 136.832 144.368 136.832Z" fill="#CF7A37"/>
</svg>
